<svg width="353" height="25" viewBox="0 0 353 25" fill="none" xmlns="http://www.w3.org/2000/svg">
<path d="M9.29 21.251C16.837 21.251 20.965 14.998 20.965 9.57596C20.965 9.39796 20.965 9.22096 20.953 9.04596C21.7562 8.46448 22.4493 7.74457 23 6.91996C22.2511 7.25196 21.4566 7.46972 20.643 7.56596C21.4996 7.05302 22.1408 6.24631 22.447 5.29596C21.6417 5.77384 20.7607 6.11069 19.842 6.29196C19.2234 5.63372 18.405 5.19779 17.5136 5.05166C16.6222 4.90553 15.7075 5.05736 14.9111 5.48363C14.1147 5.9099 13.4811 6.58683 13.1083 7.40962C12.7355 8.2324 12.6444 9.15514 12.849 10.035C11.2176 9.9532 9.6216 9.52928 8.16465 8.79073C6.70769 8.05217 5.42233 7.01548 4.392 5.74796C3.86732 6.65116 3.70659 7.72038 3.94254 8.73792C4.17848 9.75547 4.79337 10.6448 5.662 11.225C5.00926 11.2061 4.37063 11.0305 3.8 10.713V10.765C3.80039 11.7123 4.1284 12.6303 4.7284 13.3633C5.3284 14.0964 6.16347 14.5993 7.092 14.787C6.48781 14.9517 5.85389 14.9756 5.239 14.857C5.50116 15.6724 6.01168 16.3856 6.69913 16.8966C7.38658 17.4076 8.21657 17.6909 9.073 17.707C8.22212 18.3755 7.24779 18.8698 6.20573 19.1615C5.16367 19.4532 4.07432 19.5366 3 19.407C4.8766 20.6113 7.06019 21.2501 9.29 21.247" fill="#A1A1A1"/>
<path fill-rule="evenodd" clip-rule="evenodd" d="M61 3C55.477 3 51 7.484 51 13.017C51 17.442 53.865 21.197 57.839 22.521C58.339 22.613 58.521 22.304 58.521 22.038C58.521 21.801 58.513 21.17 58.508 20.335C55.726 20.94 55.139 18.992 55.139 18.992C54.685 17.834 54.029 17.526 54.029 17.526C53.121 16.906 54.098 16.918 54.098 16.918C55.101 16.988 55.629 17.95 55.629 17.95C56.521 19.48 57.97 19.038 58.539 18.782C58.631 18.135 58.889 17.694 59.175 17.444C56.955 17.191 54.62 16.331 54.62 12.493C54.62 11.4 55.01 10.505 55.649 9.805C55.546 9.552 55.203 8.533 55.747 7.155C55.747 7.155 56.587 6.885 58.497 8.181C59.3128 7.95851 60.1544 7.84519 61 7.844C61.85 7.848 62.705 7.959 63.504 8.181C65.413 6.885 66.251 7.154 66.251 7.154C66.797 8.533 66.453 9.552 66.351 9.805C66.991 10.505 67.379 11.4 67.379 12.493C67.379 16.341 65.04 17.188 62.813 17.436C63.172 17.745 63.491 18.356 63.491 19.291C63.491 20.629 63.479 21.71 63.479 22.038C63.479 22.306 63.659 22.618 64.167 22.52C66.1583 21.8521 67.8893 20.5753 69.1155 18.87C70.3416 17.1648 71.0009 15.1173 71 13.017C71 7.484 66.522 3 61 3Z" fill="#A1A1A1"/>
</svg>
