<svg width="467" height="44" viewBox="0 0 467 44" fill="none" xmlns="http://www.w3.org/2000/svg">
<path d="M0 6C0 2.68629 2.68629 0 6 0H26C29.3137 0 32 2.68629 32 6V26C32 29.3137 29.3137 32 26 32H6C2.68629 32 0 29.3137 0 26V6Z" fill="white"/>
<path d="M9.375 12H21.625H9.375ZM9.375 12C8.91087 12 8.46575 11.8156 8.13756 11.4874C7.80937 11.1592 7.625 10.7141 7.625 10.25C7.625 9.78587 7.80937 9.34075 8.13756 9.01256C8.46575 8.68437 8.91087 8.5 9.375 8.5H21.625C22.0891 8.5 22.5342 8.68437 22.8624 9.01256C23.1906 9.34075 23.375 9.78587 23.375 10.25C23.375 10.7141 23.1906 11.1592 22.8624 11.4874C22.5342 11.8156 22.0891 12 21.625 12H9.375ZM9.375 12V20.75C9.375 21.2141 9.55937 21.6592 9.88756 21.9874C10.2158 22.3156 10.6609 22.5 11.125 22.5H19.875C20.3391 22.5 20.7842 22.3156 21.1124 21.9874C21.4406 21.6592 21.625 21.2141 21.625 20.75V12H9.375ZM13.75 15.5H17.25H13.75Z" fill="#6A6A6A"/>
<path d="M49.2559 14.2959C47.8086 13.8799 46.7539 13.3701 46.0918 12.7666C45.4355 12.1572 45.1074 11.4072 45.1074 10.5166C45.1074 9.50879 45.5088 8.67676 46.3115 8.02051C47.1201 7.3584 48.1689 7.02734 49.458 7.02734C50.3369 7.02734 51.1191 7.19727 51.8047 7.53711C52.4961 7.87695 53.0293 8.3457 53.4043 8.94336C53.7852 9.54102 53.9756 10.1943 53.9756 10.9033H52.2793C52.2793 10.1299 52.0332 9.52344 51.541 9.08398C51.0488 8.63867 50.3545 8.41602 49.458 8.41602C48.626 8.41602 47.9756 8.60059 47.5068 8.96973C47.0439 9.33301 46.8125 9.83984 46.8125 10.4902C46.8125 11.0117 47.0322 11.4541 47.4717 11.8174C47.917 12.1748 48.6699 12.5029 49.7305 12.8018C50.7969 13.1006 51.6289 13.4316 52.2266 13.7949C52.8301 14.1523 53.2754 14.5713 53.5625 15.0518C53.8555 15.5322 54.002 16.0977 54.002 16.748C54.002 17.7852 53.5977 18.6172 52.7891 19.2441C51.9805 19.8652 50.8994 20.1758 49.5459 20.1758C48.667 20.1758 47.8467 20.0088 47.085 19.6748C46.3232 19.335 45.7344 18.8721 45.3184 18.2861C44.9082 17.7002 44.7031 17.0352 44.7031 16.291H46.3994C46.3994 17.0645 46.6836 17.6768 47.252 18.1279C47.8262 18.5732 48.5908 18.7959 49.5459 18.7959C50.4365 18.7959 51.1191 18.6143 51.5938 18.251C52.0684 17.8877 52.3057 17.3926 52.3057 16.7656C52.3057 16.1387 52.0859 15.6553 51.6465 15.3154C51.207 14.9697 50.4102 14.6299 49.2559 14.2959ZM58.124 8.1875V10.4902H59.8994V11.7471H58.124V17.6445C58.124 18.0254 58.2031 18.3125 58.3613 18.5059C58.5195 18.6934 58.7891 18.7871 59.1699 18.7871C59.3574 18.7871 59.6152 18.752 59.9434 18.6816V20C59.5156 20.1172 59.0996 20.1758 58.6953 20.1758C57.9688 20.1758 57.4209 19.9561 57.0518 19.5166C56.6826 19.0771 56.498 18.4531 56.498 17.6445V11.7471H54.7666V10.4902H56.498V8.1875H58.124ZM61.2002 15.1572C61.2002 14.2256 61.3818 13.3877 61.7451 12.6436C62.1143 11.8994 62.624 11.3252 63.2744 10.9209C63.9307 10.5166 64.6777 10.3145 65.5156 10.3145C66.8105 10.3145 67.8564 10.7627 68.6533 11.6592C69.4561 12.5557 69.8574 13.748 69.8574 15.2363V15.3506C69.8574 16.2764 69.6787 17.1084 69.3213 17.8467C68.9697 18.5791 68.4629 19.1504 67.8008 19.5605C67.1445 19.9707 66.3887 20.1758 65.5332 20.1758C64.2441 20.1758 63.1982 19.7275 62.3955 18.8311C61.5986 17.9346 61.2002 16.748 61.2002 15.2715V15.1572ZM62.835 15.3506C62.835 16.4053 63.0781 17.252 63.5645 17.8906C64.0566 18.5293 64.7129 18.8486 65.5332 18.8486C66.3594 18.8486 67.0156 18.5264 67.502 17.8818C67.9883 17.2314 68.2314 16.3232 68.2314 15.1572C68.2314 14.1143 67.9824 13.2705 67.4844 12.626C66.9922 11.9756 66.3359 11.6504 65.5156 11.6504C64.7129 11.6504 64.0654 11.9697 63.5732 12.6084C63.0811 13.2471 62.835 14.1611 62.835 15.3506ZM76.4932 11.9492C76.2471 11.9082 75.9805 11.8877 75.6934 11.8877C74.627 11.8877 73.9033 12.3418 73.5225 13.25V20H71.8965V10.4902H73.4785L73.5049 11.5889C74.0381 10.7393 74.7939 10.3145 75.7725 10.3145C76.0889 10.3145 76.3291 10.3555 76.4932 10.4375V11.9492ZM83.5156 20C83.4219 19.8125 83.3457 19.4785 83.2871 18.998C82.5312 19.7832 81.6289 20.1758 80.5801 20.1758C79.6426 20.1758 78.8721 19.9121 78.2686 19.3848C77.6709 18.8516 77.3721 18.1777 77.3721 17.3633C77.3721 16.373 77.7471 15.6055 78.4971 15.0605C79.2529 14.5098 80.3135 14.2344 81.6787 14.2344H83.2607V13.4873C83.2607 12.9189 83.0908 12.4678 82.751 12.1338C82.4111 11.7939 81.9102 11.624 81.248 11.624C80.668 11.624 80.1816 11.7705 79.7891 12.0635C79.3965 12.3564 79.2002 12.7109 79.2002 13.127H77.5654C77.5654 12.6523 77.7324 12.1953 78.0664 11.7559C78.4062 11.3105 78.8633 10.959 79.4375 10.7012C80.0176 10.4434 80.6533 10.3145 81.3447 10.3145C82.4404 10.3145 83.2988 10.5898 83.9199 11.1406C84.541 11.6855 84.8633 12.4385 84.8867 13.3994V17.7764C84.8867 18.6494 84.998 19.3438 85.2207 19.8594V20H83.5156ZM80.8174 18.7607C81.3271 18.7607 81.8105 18.6289 82.2676 18.3652C82.7246 18.1016 83.0557 17.7588 83.2607 17.3369V15.3857H81.9863C79.9941 15.3857 78.998 15.9688 78.998 17.1348C78.998 17.6445 79.168 18.043 79.5078 18.3301C79.8477 18.6172 80.2842 18.7607 80.8174 18.7607ZM87.0488 15.166C87.0488 13.6836 87.3916 12.5059 88.0771 11.6328C88.7627 10.7539 89.6709 10.3145 90.8018 10.3145C91.9619 10.3145 92.8672 10.7246 93.5176 11.5449L93.5967 10.4902H95.082V19.7715C95.082 21.002 94.7158 21.9717 93.9834 22.6807C93.2568 23.3896 92.2783 23.7441 91.0479 23.7441C90.3623 23.7441 89.6914 23.5977 89.0352 23.3047C88.3789 23.0117 87.8779 22.6104 87.5322 22.1006L88.376 21.125C89.0732 21.9863 89.9258 22.417 90.9336 22.417C91.7246 22.417 92.3398 22.1943 92.7793 21.749C93.2246 21.3037 93.4473 20.6768 93.4473 19.8682V19.0508C92.7969 19.8008 91.9092 20.1758 90.7842 20.1758C89.6709 20.1758 88.7686 19.7275 88.0771 18.8311C87.3916 17.9346 87.0488 16.7129 87.0488 15.166ZM88.6836 15.3506C88.6836 16.4229 88.9033 17.2666 89.3428 17.8818C89.7822 18.4912 90.3975 18.7959 91.1885 18.7959C92.2139 18.7959 92.9668 18.3301 93.4473 17.3984V13.0566C92.9492 12.1484 92.2021 11.6943 91.2061 11.6943C90.415 11.6943 89.7969 12.002 89.3516 12.6172C88.9062 13.2324 88.6836 14.1436 88.6836 15.3506ZM101.489 20.1758C100.2 20.1758 99.1514 19.7539 98.3428 18.9102C97.5342 18.0605 97.1299 16.9268 97.1299 15.5088V15.21C97.1299 14.2666 97.3086 13.4258 97.666 12.6875C98.0293 11.9434 98.5332 11.3633 99.1777 10.9473C99.8281 10.5254 100.531 10.3145 101.287 10.3145C102.523 10.3145 103.484 10.7217 104.17 11.5361C104.855 12.3506 105.198 13.5166 105.198 15.0342V15.7109H98.7559C98.7793 16.6484 99.0518 17.4072 99.5732 17.9873C100.101 18.5615 100.769 18.8486 101.577 18.8486C102.151 18.8486 102.638 18.7314 103.036 18.4971C103.435 18.2627 103.783 17.9521 104.082 17.5654L105.075 18.3389C104.278 19.5635 103.083 20.1758 101.489 20.1758ZM101.287 11.6504C100.631 11.6504 100.08 11.8906 99.6348 12.3711C99.1895 12.8457 98.9141 13.5137 98.8086 14.375H103.572V14.252C103.525 13.4258 103.303 12.7871 102.904 12.3359C102.506 11.8789 101.967 11.6504 101.287 11.6504Z" fill="white"/>
</svg>
